<svg width="1024" height="1024" viewBox="0 0 1024 1024" fill="none" xmlns="http://www.w3.org/2000/svg">
<rect width="1024" height="1024" fill="black"/>
<path d="M624.433 565.375C632.312 547.241 653.395 538.93 671.529 546.808L797.994 601.755C816.128 609.633 824.439 630.716 816.561 648.85C808.682 666.984 809.207 686.93 791.073 679.052L643 612.47C624.877 604.596 616.555 583.509 624.433 565.375Z" fill="white"/>
<path d="M553.273 631.712C571.643 624.402 592.457 633.366 599.767 651.737L650.747 779.852C658.057 798.222 649.093 819.036 630.723 826.346C612.353 833.656 598.666 848.175 591.356 829.805L533.248 678.206C525.942 659.847 534.902 639.022 553.273 631.712Z" fill="white"/>
<path d="M463.421 627.368C481.587 635.173 489.984 656.222 482.18 674.388L427.751 801.076C419.946 819.242 398.897 827.64 380.731 819.835C362.566 812.03 342.622 812.637 350.426 794.471L416.402 646.127C424.202 627.973 445.255 619.564 463.421 627.368Z" fill="white"/>
<path d="M394.139 563.153C401.146 581.641 391.841 602.305 373.353 609.312L244.418 658.182C225.93 665.189 205.267 655.885 198.259 637.397C191.252 618.909 176.959 604.985 195.447 597.978L347.98 542.368C366.456 535.364 387.131 544.665 394.139 563.153Z" fill="white"/>
<path d="M396.677 464.813C388.942 483.008 367.925 491.486 349.73 483.75L222.835 429.804C204.64 422.068 196.162 401.051 203.897 382.856C211.633 364.661 210.95 344.719 229.145 352.455L377.739 417.865C395.924 425.596 404.412 446.617 396.677 464.813Z" fill="white"/>
<path d="M466.409 397.908C448.248 405.722 427.194 397.336 419.38 379.175L364.881 252.516C357.066 234.355 365.452 213.301 383.614 205.487C401.775 197.672 415.056 182.78 422.87 200.942L485.142 350.878C492.952 369.029 484.571 390.093 466.409 397.908Z" fill="white"/>
<path d="M563.07 398.56C544.723 391.194 535.822 370.352 543.189 352.004L594.563 224.047C601.93 205.699 622.771 196.798 641.119 204.165C659.466 211.531 679.39 210.447 672.024 228.794L609.626 378.678C602.264 397.015 581.418 405.927 563.07 398.56Z" fill="white"/>
<path d="M624.519 466.716C617.429 448.26 626.641 427.555 645.097 420.464L773.811 371.017C792.268 363.926 812.973 373.138 820.063 391.595C827.154 410.051 841.509 423.91 823.052 431L670.771 487.294C652.326 494.38 631.609 485.173 624.519 466.716Z" fill="white"/>
</svg>
