<svg width="421" height="421" viewBox="0 0 421 421" fill="none" xmlns="http://www.w3.org/2000/svg">
<rect width="420.655" height="420.655" rx="100" fill="black"/>
<path d="M253.11 230.668C256.119 223.744 264.17 220.57 271.094 223.578L319.385 244.56C326.309 247.568 329.483 255.619 326.475 262.543C323.466 269.468 323.667 277.084 316.742 274.076L260.2 248.652C253.28 245.645 250.102 237.592 253.11 230.668Z" fill="white"/>
<path d="M225.938 255.999C232.952 253.207 240.9 256.63 243.691 263.645L263.158 312.566C265.95 319.581 262.527 327.529 255.512 330.32C248.497 333.111 243.271 338.656 240.48 331.641L218.291 273.753C215.501 266.742 218.923 258.79 225.938 255.999Z" fill="white"/>
<path d="M191.628 254.34C198.564 257.32 201.771 265.358 198.791 272.294L178.007 320.671C175.027 327.607 166.989 330.814 160.053 327.834C153.116 324.854 145.5 325.085 148.481 318.149L173.674 261.503C176.652 254.571 184.691 251.36 191.628 254.34Z" fill="white"/>
<path d="M165.172 229.819C167.848 236.879 164.295 244.769 157.235 247.445L108.001 266.106C100.942 268.782 93.051 265.229 90.3752 258.169C87.6994 251.11 82.2417 245.793 89.3014 243.117L147.546 221.882C154.602 219.208 162.496 222.76 165.172 229.819Z" fill="white"/>
<path d="M166.142 192.268C163.188 199.216 155.163 202.453 148.215 199.499L99.76 178.9C92.8121 175.946 89.5748 167.921 92.5286 160.973C95.4823 154.025 95.2217 146.41 102.17 149.364L158.911 174.341C165.854 177.293 169.096 185.32 166.142 192.268Z" fill="white"/>
<path d="M192.769 166.72C185.834 169.704 177.794 166.502 174.81 159.567L154 111.202C151.016 104.267 154.218 96.2281 161.153 93.2441C168.088 90.2601 173.159 84.5737 176.143 91.5086L199.922 148.762C202.904 155.693 199.704 163.736 192.769 166.72Z" fill="white"/>
<path d="M229.679 166.969C222.673 164.156 219.274 156.198 222.087 149.192L241.704 100.331C244.517 93.3247 252.476 89.9261 259.482 92.739C266.488 95.5519 274.096 95.1377 271.283 102.144L247.456 159.377C244.645 166.379 236.685 169.782 229.679 166.969Z" fill="white"/>
<path d="M253.143 192.995C250.435 185.947 253.953 178.041 261 175.334L310.15 156.452C317.198 153.744 325.104 157.262 327.812 164.31C330.519 171.357 336.001 176.649 328.953 179.357L270.804 200.853C263.761 203.559 255.85 200.043 253.143 192.995Z" fill="white"/>
</svg>
