<svg width="578" height="165" viewBox="0 0 578 165" fill="none" xmlns="http://www.w3.org/2000/svg">
<path d="M202.1 119.6C195.1 119.6 189.067 118.133 184 115.2C178.933 112.2 175.033 107.933 172.3 102.4C169.633 96.8667 168.3 90.2667 168.3 82.6C168.3 74.9333 169.633 68.3333 172.3 62.8C175.033 57.2 178.933 52.9 184 49.9C189.067 46.9 195.1 45.4 202.1 45.4C209.233 45.4 215.3 46.9 220.3 49.9C225.367 52.9 229.233 57.2 231.9 62.8C234.633 68.3333 236 74.9333 236 82.6C236 90.2667 234.633 96.8667 231.9 102.4C229.233 107.933 225.367 112.2 220.3 115.2C215.3 118.133 209.233 119.6 202.1 119.6ZM202.1 108.3C206.433 108.3 210.1 107.3 213.1 105.3C216.167 103.233 218.5 100.3 220.1 96.5C221.767 92.6333 222.6 88 222.6 82.6C222.6 77.2 221.767 72.5667 220.1 68.7C218.5 64.8333 216.167 61.8667 213.1 59.8C210.1 57.7333 206.433 56.7 202.1 56.7C197.9 56.7 194.267 57.7333 191.2 59.8C188.133 61.8667 185.767 64.8333 184.1 68.7C182.5 72.5667 181.7 77.2 181.7 82.6C181.7 88 182.5 92.6333 184.1 96.5C185.767 100.3 188.133 103.233 191.2 105.3C194.267 107.3 197.9 108.3 202.1 108.3ZM247.27 133V64.6H259.57L259.87 76L258.57 75.4C259.903 71.4667 262.07 68.5 265.07 66.5C268.136 64.4333 271.703 63.4 275.77 63.4C280.836 63.4 285.036 64.6667 288.37 67.2C291.77 69.7333 294.303 73.1 295.97 77.3C297.636 81.5 298.47 86.1667 298.47 91.3C298.47 96.4333 297.603 101.1 295.87 105.3C294.203 109.5 291.67 112.867 288.27 115.4C284.936 117.933 280.736 119.2 275.67 119.2C273.003 119.2 270.503 118.733 268.17 117.8C265.903 116.867 263.936 115.533 262.27 113.8C260.67 112.067 259.536 110.033 258.87 107.7L260.07 106.7V133H247.27ZM272.67 108.8C276.536 108.8 279.57 107.267 281.77 104.2C284.036 101.067 285.17 96.7667 285.17 91.3C285.17 85.8333 284.036 81.5667 281.77 78.5C279.57 75.3667 276.536 73.8 272.67 73.8C270.07 73.8 267.836 74.4667 265.97 75.8C264.103 77.0667 262.636 79 261.57 81.6C260.57 84.2 260.07 87.4333 260.07 91.3C260.07 95.1667 260.57 98.4 261.57 101C262.57 103.6 264.003 105.567 265.87 106.9C267.803 108.167 270.07 108.8 272.67 108.8ZM331.502 119.2C326.169 119.2 321.536 118.067 317.602 115.8C313.669 113.467 310.636 110.2 308.502 106C306.369 101.8 305.302 96.9 305.302 91.3C305.302 85.7 306.369 80.8333 308.502 76.7C310.636 72.5 313.636 69.2333 317.502 66.9C321.436 64.5667 326.002 63.4 331.202 63.4C336.269 63.4 340.702 64.5333 344.502 66.8C348.369 69.0667 351.336 72.3333 353.402 76.6C355.469 80.8667 356.502 86 356.502 92V94.9H318.602C318.869 99.5667 320.136 103.1 322.402 105.5C324.736 107.833 327.802 109 331.602 109C334.469 109 336.836 108.367 338.702 107.1C340.636 105.767 341.969 103.933 342.702 101.6L355.802 102.4C354.336 107.6 351.436 111.7 347.102 114.7C342.836 117.7 337.636 119.2 331.502 119.2ZM318.602 86.3H343.302C343.036 81.9667 341.802 78.7667 339.602 76.7C337.402 74.5667 334.602 73.5 331.202 73.5C327.802 73.5 324.969 74.6 322.702 76.8C320.502 79 319.136 82.1667 318.602 86.3ZM366.508 118V64.6H378.108L378.608 79.6L377.108 79C377.641 75.2667 378.741 72.2667 380.408 70C382.074 67.7333 384.108 66.0667 386.508 65C388.908 63.9333 391.541 63.4 394.408 63.4C398.341 63.4 401.641 64.2667 404.308 66C407.041 67.7333 409.108 70.1333 410.508 73.2C411.908 76.2 412.608 79.7 412.608 83.7V118H399.808V87.8C399.808 84.8 399.508 82.2667 398.908 80.2C398.308 78.1333 397.308 76.5667 395.908 75.5C394.574 74.3667 392.774 73.8 390.508 73.8C387.108 73.8 384.374 75 382.308 77.4C380.308 79.8 379.308 83.2667 379.308 87.8V118H366.508ZM456.766 119.6C450.3 119.6 444.6 118.133 439.666 115.2C434.733 112.2 430.866 107.967 428.066 102.5C425.266 96.9667 423.866 90.3333 423.866 82.6C423.866 75 425.233 68.4333 427.966 62.9C430.7 57.3 434.533 53 439.466 50C444.4 46.9333 450.2 45.4 456.866 45.4C465.933 45.4 472.966 47.6667 477.966 52.2C482.966 56.6667 486.233 62.9333 487.766 71L474.166 71.7C473.3 67.0333 471.433 63.3667 468.566 60.7C465.7 58.0333 461.8 56.7 456.866 56.7C452.866 56.7 449.4 57.7667 446.466 59.9C443.533 62.0333 441.266 65.0333 439.666 68.9C438.066 72.7667 437.266 77.3333 437.266 82.6C437.266 87.9333 438.066 92.5333 439.666 96.4C441.333 100.2 443.633 103.133 446.566 105.2C449.5 107.267 452.9 108.3 456.766 108.3C462.033 108.3 466.1 106.867 468.966 104C471.9 101.067 473.766 97.0667 474.566 92L488.166 92.7C487.233 98.2333 485.433 103.033 482.766 107.1C480.1 111.1 476.566 114.2 472.166 116.4C467.833 118.533 462.7 119.6 456.766 119.6ZM513.746 119.2C508.146 119.2 503.646 117.933 500.246 115.4C496.846 112.8 495.146 109.2 495.146 104.6C495.146 100 496.579 96.4 499.446 93.8C502.313 91.2 506.679 89.3333 512.546 88.2L530.246 84.7C530.246 80.9 529.379 78.0667 527.646 76.2C525.913 74.2667 523.346 73.3 519.946 73.3C516.879 73.3 514.446 74.0333 512.646 75.5C510.913 76.9 509.713 78.9333 509.046 81.6L496.046 81C497.113 75.3333 499.713 71 503.846 68C507.979 64.9333 513.346 63.4 519.946 63.4C527.546 63.4 533.279 65.3333 537.146 69.2C541.079 73 543.046 78.4667 543.046 85.6V105C543.046 106.4 543.279 107.367 543.746 107.9C544.279 108.433 545.046 108.7 546.046 108.7H547.746V118C547.346 118.133 546.679 118.233 545.746 118.3C544.879 118.367 543.979 118.4 543.046 118.4C540.846 118.4 538.879 118.067 537.146 117.4C535.413 116.667 534.079 115.433 533.146 113.7C532.213 111.9 531.746 109.467 531.746 106.4L532.846 107.2C532.313 109.533 531.146 111.633 529.346 113.5C527.613 115.3 525.413 116.7 522.746 117.7C520.079 118.7 517.079 119.2 513.746 119.2ZM516.346 109.9C519.213 109.9 521.679 109.333 523.746 108.2C525.813 107.067 527.413 105.5 528.546 103.5C529.679 101.5 530.246 99.1333 530.246 96.4V93.4L516.446 96.2C513.579 96.8 511.513 97.7 510.246 98.9C509.046 100.033 508.446 101.533 508.446 103.4C508.446 105.467 509.113 107.067 510.446 108.2C511.846 109.333 513.813 109.9 516.346 109.9ZM568.077 118C564.211 118 561.111 117 558.777 115C556.444 113 555.277 109.8 555.277 105.4V47H568.077V104.1C568.077 105.433 568.411 106.433 569.077 107.1C569.811 107.767 570.811 108.1 572.077 108.1H575.977V118H568.077Z" fill="white"/>
<path d="M102.951 92.0453C104.413 88.6807 108.325 87.1385 111.689 88.6003L135.154 98.7955C138.519 100.257 140.061 104.169 138.599 107.534C137.138 110.899 137.235 114.6 133.87 113.138L106.396 100.784C103.033 99.3227 101.489 95.41 102.951 92.0453Z" fill="white"/>
<path d="M89.747 104.354C93.1556 102.998 97.0175 104.661 98.3739 108.069L107.833 131.841C109.19 135.249 107.526 139.111 104.118 140.468C100.709 141.824 98.1696 144.518 96.8132 141.109L86.0315 112.981C84.676 109.574 86.3385 105.71 89.747 104.354Z" fill="white"/>
<path d="M73.0752 103.548C76.4458 104.996 78.004 108.902 76.5559 112.272L66.4567 135.779C65.0086 139.149 61.103 140.708 57.7324 139.26C54.3619 137.811 50.6613 137.924 52.1094 134.553L64.351 107.029C65.7982 103.66 69.7046 102.1 73.0752 103.548Z" fill="white"/>
<path d="M60.2204 91.633C61.5206 95.0634 59.7941 98.8975 56.3637 100.198L32.4402 109.265C29.0098 110.566 25.1757 108.839 23.8755 105.409C22.5753 101.978 19.9234 99.3949 23.3537 98.0947L51.6557 87.7764C55.084 86.4769 58.9202 88.2027 60.2204 91.633Z" fill="white"/>
<path d="M60.6913 73.3862C59.256 76.7623 55.3564 78.3354 51.9803 76.9001L28.4354 66.8904C25.0593 65.4552 23.4863 61.5556 24.9216 58.1795C26.3568 54.8034 26.2302 51.1033 29.6063 52.5385L57.1775 64.6753C60.5515 66.1097 62.1266 70.0102 60.6913 73.3862Z" fill="white"/>
<path d="M73.6299 60.9723C70.2601 62.4223 66.3537 60.8662 64.9037 57.4964L54.7915 33.9954C53.3416 30.6256 54.8976 26.7191 58.2674 25.2692C61.6372 23.8192 64.1013 21.0561 65.5513 24.4259L77.1057 52.2461C78.5548 55.6139 76.9997 59.5223 73.6299 60.9723Z" fill="white"/>
<path d="M91.5651 61.0932C88.1608 59.7264 86.5094 55.8594 87.8762 52.455L97.4085 28.7128C98.7753 25.3084 102.642 23.657 106.047 25.0238C109.451 26.3907 113.148 26.1894 111.781 29.5937L100.203 57.4043C98.8374 60.8066 94.9695 62.4601 91.5651 61.0932Z" fill="white"/>
<path d="M102.967 73.7394C101.651 70.315 103.36 66.4731 106.785 65.1575L130.667 55.9826C134.092 54.667 137.934 56.3763 139.249 59.8008C140.565 63.2253 143.228 65.7968 139.804 67.1124L111.549 77.5576C108.126 78.8724 104.282 77.1639 102.967 73.7394Z" fill="white"/>
</svg>
