<svg width="637" height="184" viewBox="0 0 637 184" fill="none" xmlns="http://www.w3.org/2000/svg">
<path d="M251.8 136.6C244.6 136.6 238.4 135.1 233.2 132.1C228.067 129.1 224.1 124.833 221.3 119.3C218.567 113.767 217.2 107.2 217.2 99.6C217.2 92 218.567 85.4333 221.3 79.9C224.1 74.3 228.067 70 233.2 67C238.4 63.9333 244.6 62.4 251.8 62.4C259 62.4 265.167 63.9333 270.3 67C275.5 70 279.467 74.3 282.2 79.9C285 85.4333 286.4 92 286.4 99.6C286.4 107.2 285 113.767 282.2 119.3C279.467 124.833 275.5 129.1 270.3 132.1C265.167 135.1 259 136.6 251.8 136.6ZM251.7 123.8C255.7 123.8 259.1 122.867 261.9 121C264.767 119.067 266.933 116.3 268.4 112.7C269.933 109.1 270.7 104.733 270.7 99.6C270.7 94.4667 269.933 90.1 268.4 86.5C266.933 82.8333 264.767 80.0333 261.9 78.1C259.1 76.1667 255.7 75.2 251.7 75.2C247.767 75.2 244.4 76.1667 241.6 78.1C238.8 80.0333 236.633 82.8333 235.1 86.5C233.633 90.1 232.9 94.4667 232.9 99.6C232.9 104.733 233.633 109.1 235.1 112.7C236.633 116.3 238.8 119.067 241.6 121C244.467 122.867 247.833 123.8 251.7 123.8ZM297.237 150V81.4H311.637L311.937 92.7L310.737 92.2C312.07 88.3333 314.237 85.3667 317.237 83.3C320.237 81.2333 323.737 80.2 327.737 80.2C332.737 80.2 336.903 81.4333 340.237 83.9C343.57 86.3667 346.07 89.7333 347.737 94C349.47 98.2 350.337 102.933 350.337 108.2C350.337 113.4 349.47 118.133 347.737 122.4C346.07 126.667 343.537 130.033 340.137 132.5C336.803 134.967 332.637 136.2 327.637 136.2C325.037 136.2 322.603 135.733 320.337 134.8C318.07 133.8 316.103 132.433 314.437 130.7C312.837 128.967 311.67 126.9 310.937 124.5L312.237 123.7V150H297.237ZM323.537 124.7C327.07 124.7 329.837 123.233 331.837 120.3C333.903 117.367 334.937 113.333 334.937 108.2C334.937 103.067 333.903 99.0333 331.837 96.1C329.837 93.1667 327.07 91.7 323.537 91.7C321.203 91.7 319.17 92.3333 317.437 93.6C315.77 94.8 314.47 96.6333 313.537 99.1C312.67 101.567 312.237 104.6 312.237 108.2C312.237 111.8 312.67 114.833 313.537 117.3C314.47 119.767 315.77 121.633 317.437 122.9C319.17 124.1 321.203 124.7 323.537 124.7ZM383.739 136.2C378.272 136.2 373.506 135.067 369.439 132.8C365.439 130.467 362.306 127.2 360.039 123C357.839 118.8 356.739 113.867 356.739 108.2C356.739 102.533 357.839 97.6333 360.039 93.5C362.306 89.3 365.439 86.0333 369.439 83.7C373.439 81.3667 378.172 80.2 383.639 80.2C388.972 80.2 393.606 81.3667 397.539 83.7C401.472 86.0333 404.506 89.3667 406.639 93.7C408.839 98.0333 409.939 103.2 409.939 109.2V112.2H372.239C372.439 116.467 373.572 119.633 375.639 121.7C377.772 123.767 380.572 124.8 384.039 124.8C386.572 124.8 388.672 124.267 390.339 123.2C392.072 122.133 393.306 120.5 394.039 118.3L409.139 119.2C407.739 124.533 404.772 128.7 400.239 131.7C395.706 134.7 390.206 136.2 383.739 136.2ZM372.239 103H394.539C394.339 99.0667 393.239 96.1333 391.239 94.2C389.306 92.2667 386.772 91.3 383.639 91.3C380.506 91.3 377.906 92.3333 375.839 94.4C373.839 96.4 372.639 99.2667 372.239 103ZM419.209 135V81.4H432.709L433.309 97.1L431.409 96.6C431.943 92.6 433.009 89.4 434.609 87C436.276 84.6 438.343 82.8667 440.809 81.8C443.276 80.7333 445.976 80.2 448.909 80.2C452.776 80.2 456.043 81.0333 458.709 82.7C461.443 84.3667 463.509 86.7333 464.909 89.8C466.376 92.8 467.109 96.3667 467.109 100.5V135H452.109V105.5C452.109 102.633 451.876 100.2 451.409 98.2C450.943 96.2 450.109 94.7 448.909 93.7C447.709 92.6333 446.043 92.1 443.909 92.1C440.776 92.1 438.376 93.2667 436.709 95.6C435.043 97.8667 434.209 101.167 434.209 105.5V135H419.209ZM511.242 136.6C504.776 136.6 499.009 135.133 493.942 132.2C488.942 129.267 485.009 125.033 482.142 119.5C479.342 113.967 477.942 107.333 477.942 99.6C477.942 92.0667 479.309 85.5333 482.042 80C484.776 74.4 488.676 70.0667 493.742 67C498.809 63.9333 504.742 62.4 511.542 62.4C520.809 62.4 528.009 64.7 533.142 69.3C538.342 73.8333 541.676 80.3333 543.142 88.8L527.342 89.4C526.542 84.9333 524.809 81.4667 522.142 79C519.476 76.4667 515.942 75.2 511.542 75.2C507.742 75.2 504.509 76.2 501.842 78.2C499.176 80.2 497.142 83.0333 495.742 86.7C494.342 90.3667 493.642 94.6667 493.642 99.6C493.642 104.6 494.342 108.933 495.742 112.6C497.209 116.2 499.276 118.967 501.942 120.9C504.609 122.833 507.776 123.8 511.442 123.8C516.242 123.8 519.942 122.467 522.542 119.8C525.209 117.067 526.876 113.3 527.542 108.5L543.442 109.1C542.509 114.9 540.676 119.833 537.942 123.9C535.209 127.967 531.609 131.1 527.142 133.3C522.742 135.5 517.442 136.6 511.242 136.6ZM568.801 136.2C563.267 136.2 558.734 134.933 555.201 132.4C551.734 129.8 550.001 126.2 550.001 121.6C550.001 116.867 551.467 113.233 554.401 110.7C557.401 108.1 561.801 106.2 567.601 105L584.901 101.6C584.901 98.1333 584.101 95.5333 582.501 93.8C580.967 92 578.734 91.1 575.801 91.1C572.934 91.1 570.701 91.7667 569.101 93.1C567.501 94.3667 566.467 96.2667 566.001 98.8L550.901 98.1C551.901 92.2333 554.534 87.8 558.801 84.8C563.134 81.7333 568.801 80.2 575.801 80.2C583.801 80.2 589.801 82.1 593.801 85.9C597.867 89.7 599.901 95.2667 599.901 102.6V120.9C599.901 122.433 600.134 123.467 600.601 124C601.134 124.467 601.901 124.7 602.901 124.7H604.401V135C603.934 135.133 603.167 135.267 602.101 135.4C601.101 135.533 600.101 135.6 599.101 135.6C596.967 135.6 594.967 135.233 593.101 134.5C591.301 133.767 589.834 132.533 588.701 130.8C587.567 129 587.001 126.467 587.001 123.2L588.301 124.2C587.634 126.6 586.434 128.7 584.701 130.5C583.034 132.3 580.834 133.7 578.101 134.7C575.434 135.7 572.334 136.2 568.801 136.2ZM572.401 125.9C574.867 125.9 577.034 125.433 578.901 124.5C580.767 123.5 582.234 122.067 583.301 120.2C584.367 118.333 584.901 116.133 584.901 113.6V111L572.701 113.6C570.301 114.067 568.467 114.867 567.201 116C566.001 117.067 565.401 118.467 565.401 120.2C565.401 122 566.001 123.4 567.201 124.4C568.401 125.4 570.134 125.9 572.401 125.9ZM625.299 135C620.899 135 617.466 133.9 614.999 131.7C612.533 129.5 611.299 125.933 611.299 121V64H626.299V119.4C626.299 121 626.666 122.133 627.399 122.8C628.133 123.467 629.199 123.8 630.599 123.8H634.199V135H625.299Z" fill="white"/>
<path d="M88.3549 88.3306C84.6869 88.3306 81.7135 91.304 81.7135 94.9719V95.0217C81.7135 98.6896 84.6869 101.663 88.3549 101.663H88.4047C92.0726 101.663 95.046 98.6896 95.046 95.0217V94.9719C95.046 91.304 92.0726 88.3306 88.4047 88.3306H88.3549Z" fill="white"/>
<path d="M88.3484 128.18C84.6804 128.18 81.707 131.154 81.707 134.822V134.871C81.707 138.539 84.6804 141.513 88.3484 141.513H88.3982C92.0661 141.513 95.0396 138.539 95.0396 134.871V134.822C95.0396 131.154 92.0661 128.18 88.3982 128.18H88.3484Z" fill="white"/>
<path d="M61.777 134.828C61.777 131.16 64.7504 128.187 68.4183 128.187H68.4681C72.1361 128.187 75.1095 131.16 75.1095 134.828V134.878C75.1095 138.546 72.1361 141.519 68.4681 141.519H68.4183C64.7504 141.519 61.777 138.546 61.777 134.878V134.828Z" fill="white"/>
<path d="M48.4948 128.18C44.8268 128.18 41.8534 131.154 41.8534 134.822V134.871C41.8534 138.539 44.8268 141.513 48.4948 141.513H48.5446C52.2125 141.513 55.186 138.539 55.186 134.871V134.822C55.186 131.154 52.2125 128.18 48.5446 128.18H48.4948Z" fill="white"/>
<path d="M101.624 114.928C101.624 111.26 104.597 108.286 108.265 108.286H108.315C111.983 108.286 114.957 111.26 114.957 114.928V114.977C114.957 118.645 111.983 121.619 108.315 121.619H108.265C104.597 121.619 101.624 118.645 101.624 114.977V114.928Z" fill="white"/>
<path d="M108.272 128.187C104.604 128.187 101.631 131.16 101.631 134.828V134.878C101.631 138.546 104.604 141.519 108.272 141.519H108.322C111.99 141.519 114.963 138.546 114.963 134.878V134.828C114.963 131.16 111.99 128.187 108.322 128.187H108.272Z" fill="white"/>
<path d="M121.554 114.915C121.554 111.247 124.528 108.273 128.195 108.273H128.245C131.913 108.273 134.887 111.247 134.887 114.915V114.964C134.887 118.632 131.913 121.606 128.245 121.606H128.195C124.528 121.606 121.554 118.632 121.554 114.964V114.915Z" fill="white"/>
<path d="M101.617 94.9721C101.617 91.3042 104.59 88.3308 108.258 88.3308H128.182C131.849 88.3308 134.823 91.3042 134.823 94.9721C134.823 98.6399 131.849 101.613 128.182 101.613H108.258C104.59 101.613 101.617 98.6399 101.617 94.9721Z" fill="white"/>
<path d="M41.8471 114.897C41.8471 111.229 44.8205 108.255 48.4885 108.255H88.335C92.0029 108.255 94.9764 111.229 94.9764 114.897C94.9764 118.565 92.0029 121.538 88.335 121.538H48.4885C44.8205 121.538 41.8471 118.565 41.8471 114.897Z" fill="white"/>
<path fill-rule="evenodd" clip-rule="evenodd" d="M141.48 8.64127C141.48 4.9734 138.506 2 134.838 2C131.17 2 128.197 4.9734 128.197 8.64127V21.9135H48.5016V8.65313C48.5016 4.98526 45.5282 2.01186 41.8603 2.01186C38.1923 2.01186 35.2189 4.98526 35.2189 8.65313V21.9135H28.5655C13.8938 21.9135 2 33.8071 2 48.4786V148.104C2 162.775 13.8938 174.669 28.5655 174.669H148.103C162.775 174.669 174.669 162.775 174.669 148.104V48.4786C174.669 33.8071 162.775 21.9135 148.103 21.9135H141.48V8.64127ZM15.2828 148.104V81.6907C15.2828 74.3549 21.2296 68.4081 28.5655 68.4081H148.103C155.439 68.4081 161.386 74.3549 161.386 81.6907V148.104C161.386 155.439 155.439 161.386 148.103 161.386H28.5655C21.2297 161.386 15.2828 155.439 15.2828 148.104Z" fill="white"/>
<path d="M88.3549 88.3306C84.6869 88.3306 81.7135 91.304 81.7135 94.9719V95.0217C81.7135 98.6896 84.6869 101.663 88.3549 101.663H88.4047C92.0726 101.663 95.046 98.6896 95.046 95.0217V94.9719C95.046 91.304 92.0726 88.3306 88.4047 88.3306H88.3549Z" stroke="black" stroke-width="3" stroke-linecap="round" stroke-linejoin="round"/>
<path d="M88.3484 128.18C84.6804 128.18 81.707 131.154 81.707 134.822V134.871C81.707 138.539 84.6804 141.513 88.3484 141.513H88.3982C92.0661 141.513 95.0396 138.539 95.0396 134.871V134.822C95.0396 131.154 92.0661 128.18 88.3982 128.18H88.3484Z" stroke="black" stroke-width="3" stroke-linecap="round" stroke-linejoin="round"/>
<path d="M61.777 134.828C61.777 131.16 64.7504 128.187 68.4183 128.187H68.4681C72.1361 128.187 75.1095 131.16 75.1095 134.828V134.878C75.1095 138.546 72.1361 141.519 68.4681 141.519H68.4183C64.7504 141.519 61.777 138.546 61.777 134.878V134.828Z" stroke="black" stroke-width="3" stroke-linecap="round" stroke-linejoin="round"/>
<path d="M48.4948 128.18C44.8268 128.18 41.8534 131.154 41.8534 134.822V134.871C41.8534 138.539 44.8268 141.513 48.4948 141.513H48.5446C52.2125 141.513 55.186 138.539 55.186 134.871V134.822C55.186 131.154 52.2125 128.18 48.5446 128.18H48.4948Z" stroke="black" stroke-width="3" stroke-linecap="round" stroke-linejoin="round"/>
<path d="M101.624 114.928C101.624 111.26 104.597 108.286 108.265 108.286H108.315C111.983 108.286 114.957 111.26 114.957 114.928V114.977C114.957 118.645 111.983 121.619 108.315 121.619H108.265C104.597 121.619 101.624 118.645 101.624 114.977V114.928Z" stroke="black" stroke-width="3" stroke-linecap="round" stroke-linejoin="round"/>
<path d="M108.272 128.187C104.604 128.187 101.631 131.16 101.631 134.828V134.878C101.631 138.546 104.604 141.519 108.272 141.519H108.322C111.99 141.519 114.963 138.546 114.963 134.878V134.828C114.963 131.16 111.99 128.187 108.322 128.187H108.272Z" stroke="black" stroke-width="3" stroke-linecap="round" stroke-linejoin="round"/>
<path d="M121.554 114.915C121.554 111.247 124.528 108.273 128.195 108.273H128.245C131.913 108.273 134.887 111.247 134.887 114.915V114.964C134.887 118.632 131.913 121.606 128.245 121.606H128.195C124.528 121.606 121.554 118.632 121.554 114.964V114.915Z" stroke="black" stroke-width="3" stroke-linecap="round" stroke-linejoin="round"/>
<path d="M101.617 94.9721C101.617 91.3042 104.59 88.3308 108.258 88.3308H128.182C131.849 88.3308 134.823 91.3042 134.823 94.9721C134.823 98.6399 131.849 101.613 128.182 101.613H108.258C104.59 101.613 101.617 98.6399 101.617 94.9721Z" stroke="black" stroke-width="3" stroke-linecap="round" stroke-linejoin="round"/>
<path d="M41.8471 114.897C41.8471 111.229 44.8205 108.255 48.4885 108.255H88.335C92.0029 108.255 94.9764 111.229 94.9764 114.897C94.9764 118.565 92.0029 121.538 88.335 121.538H48.4885C44.8205 121.538 41.8471 118.565 41.8471 114.897Z" stroke="black" stroke-width="3" stroke-linecap="round" stroke-linejoin="round"/>
<path fill-rule="evenodd" clip-rule="evenodd" d="M141.48 8.64127C141.48 4.9734 138.506 2 134.838 2C131.17 2 128.197 4.9734 128.197 8.64127V21.9135H48.5016V8.65313C48.5016 4.98526 45.5282 2.01186 41.8603 2.01186C38.1923 2.01186 35.2189 4.98526 35.2189 8.65313V21.9135H28.5655C13.8938 21.9135 2 33.8071 2 48.4786V148.104C2 162.775 13.8938 174.669 28.5655 174.669H148.103C162.775 174.669 174.669 162.775 174.669 148.104V48.4786C174.669 33.8071 162.775 21.9135 148.103 21.9135H141.48V8.64127ZM15.2828 148.104V81.6907C15.2828 74.3549 21.2296 68.4081 28.5655 68.4081H148.103C155.439 68.4081 161.386 74.3549 161.386 81.6907V148.104C161.386 155.439 155.439 161.386 148.103 161.386H28.5655C21.2297 161.386 15.2828 155.439 15.2828 148.104Z" stroke="black" stroke-width="3" stroke-linecap="round" stroke-linejoin="round"/>
<path fill-rule="evenodd" clip-rule="evenodd" d="M49.9045 8.33118C53.5723 8.33118 56.5456 11.3045 56.5456 14.9723V28.2545H136.239V14.9723C136.239 11.3045 139.212 8.33118 142.88 8.33118C146.548 8.33118 149.521 11.3045 149.521 14.9723V28.2545H156.162C170.833 28.2545 182.727 40.1478 182.727 54.8189V154.436C182.727 169.107 170.833 181 156.162 181H36.6223C21.9512 181 10.0579 169.107 10.0579 154.436V54.8189C10.0579 40.1478 21.9512 28.2545 36.6223 28.2545H43.2634V14.9723C43.2634 11.3045 46.2367 8.33118 49.9045 8.33118ZM169.444 88.0245C169.444 80.6889 163.498 74.7423 156.162 74.7423H36.6223C29.2867 74.7423 23.3401 80.6889 23.3401 88.0245V154.436C23.3401 161.771 29.2867 167.718 36.6223 167.718H156.162C163.498 167.718 169.444 161.771 169.444 154.436V88.0245Z" fill="black" stroke="white" stroke-width="5"/>
</svg>
