<svg width="421" height="184" viewBox="0 0 421 184" fill="none" xmlns="http://www.w3.org/2000/svg">
<path d="M115.337 103.12C116.975 99.3502 121.358 97.6225 125.127 99.2602L151.415 110.682C155.185 112.32 156.913 116.702 155.275 120.472C153.637 124.241 153.746 128.387 149.977 126.75L119.197 112.909C115.43 111.273 113.7 106.889 115.337 103.12Z" fill="white"/>
<path d="M100.545 116.909C104.363 115.39 108.69 117.253 110.21 121.072L120.807 147.703C122.326 151.522 120.463 155.848 116.644 157.368C112.826 158.887 109.981 161.906 108.461 158.087L96.3822 126.574C94.8636 122.758 96.7261 118.429 100.545 116.909Z" fill="white"/>
<path d="M81.8675 116.006C85.6436 117.628 87.3893 122.004 85.7669 125.78L74.4527 152.115C72.8303 155.891 68.4549 157.637 64.6788 156.014C60.9026 154.392 56.7568 154.518 58.3792 150.742L72.0936 119.906C73.7149 116.132 78.0914 114.384 81.8675 116.006Z" fill="white"/>
<path d="M67.4657 102.658C68.9223 106.501 66.9881 110.796 63.145 112.253L36.3431 122.411C32.5 123.868 28.2046 121.934 26.748 118.091C25.2913 114.248 22.3203 111.353 26.1634 109.897L57.8705 98.337C61.7113 96.8813 66.0091 98.8146 67.4657 102.658Z" fill="white"/>
<path d="M67.9932 82.2156C66.3852 85.9979 62.0165 87.7602 58.2342 86.1522L31.8564 74.9383C28.0742 73.3303 26.3119 68.9615 27.9198 65.1793C29.5278 61.397 29.3859 57.2517 33.1682 58.8596L64.0566 72.4566C67.8366 74.0636 69.6011 78.4334 67.9932 82.2156Z" fill="white"/>
<path d="M82.4885 68.308C78.7133 69.9325 74.3369 68.1892 72.7124 64.414L61.3836 38.0854C59.7592 34.3101 61.5025 29.9337 65.2777 28.3093C69.0529 26.6849 71.8136 23.5893 73.438 27.3645L86.3826 58.532C88.006 62.3049 86.2638 66.6836 82.4885 68.308Z" fill="white"/>
<path d="M102.581 68.4436C98.7675 66.9123 96.9174 62.58 98.4487 58.766L109.128 32.1673C110.659 28.3533 114.991 26.5032 118.805 28.0345C122.619 29.5658 126.761 29.3402 125.23 33.1542L112.259 64.3108C110.729 68.1225 106.395 69.9749 102.581 68.4436Z" fill="white"/>
<path d="M115.355 82.6114C113.881 78.7749 115.796 74.4709 119.632 72.997L146.388 62.7182C150.225 61.2443 154.529 63.1593 156.003 66.9958C157.476 70.8323 160.46 73.7132 156.624 75.187L124.969 86.889C121.135 88.362 116.828 86.4479 115.355 82.6114Z" fill="white"/>
<path d="M371.74 143.092V132.233H379.199C381.1 132.233 382.489 131.941 383.367 131.356C384.318 130.771 385.049 129.783 385.561 128.394L387.206 124.336H383.148L362.198 68.0674H376.786L391.484 111.174L405.523 68.0674H420.111L397.187 132.781C395.871 136.438 394.006 139.07 391.593 140.679C389.253 142.288 385.963 143.092 381.722 143.092H371.74Z" fill="white"/>
<path d="M352.477 126.639C348.236 126.639 344.835 125.542 342.276 123.349C339.717 121.155 338.437 117.645 338.437 112.819V48.7629H352.477V111.393C352.477 112.856 352.842 113.952 353.574 114.684C354.378 115.415 355.475 115.78 356.864 115.78H361.142V126.639H352.477Z" fill="white"/>
<path d="M292.884 127.955C286.741 127.955 281.805 126.566 278.076 123.787C274.347 120.936 272.482 116.987 272.482 111.941C272.482 106.896 274.054 102.947 277.199 100.095C280.343 97.2436 285.133 95.1962 291.567 93.9531L310.982 90.1141C310.982 85.9461 310.031 82.8383 308.13 80.7909C306.229 78.6703 303.413 77.61 299.684 77.61C296.32 77.61 293.651 78.4144 291.677 80.0231C289.776 81.5587 288.46 83.7889 287.728 86.7139L273.469 86.0558C274.639 79.8403 277.491 75.0873 282.025 71.7967C286.558 68.4331 292.445 66.7512 299.684 66.7512C308.02 66.7512 314.309 68.8718 318.55 73.1129C322.864 77.281 325.021 83.2771 325.021 91.1013V112.38C325.021 113.916 325.277 114.976 325.789 115.561C326.374 116.146 327.215 116.438 328.312 116.438H330.176V126.639C329.738 126.785 329.006 126.895 327.983 126.968C327.032 127.041 326.045 127.078 325.021 127.078C322.608 127.078 320.451 126.712 318.55 125.981C316.649 125.177 315.186 123.824 314.162 121.923C313.139 119.948 312.627 117.279 312.627 113.916L313.833 114.793C313.248 117.353 311.969 119.656 309.994 121.703C308.093 123.678 305.68 125.213 302.755 126.31C299.83 127.407 296.54 127.955 292.884 127.955ZM295.735 117.755C298.88 117.755 301.585 117.133 303.852 115.89C306.119 114.647 307.874 112.929 309.117 110.735C310.36 108.541 310.982 105.945 310.982 102.947V99.6567L295.845 102.728C292.701 103.386 290.434 104.373 289.045 105.689C287.728 106.932 287.07 108.578 287.07 110.625C287.07 112.892 287.802 114.647 289.264 115.89C290.8 117.133 292.957 117.755 295.735 117.755Z" fill="white"/>
<path d="M230.386 128.394C223.293 128.394 217.041 126.785 211.63 123.568C206.218 120.277 201.977 115.634 198.906 109.638C195.835 103.569 194.299 96.2929 194.299 87.8106C194.299 79.4746 195.798 72.2719 198.796 66.2027C201.794 60.0603 205.999 55.3439 211.41 52.0533C216.821 48.6896 223.183 47.0078 230.495 47.0078C240.44 47.0078 248.155 49.494 253.639 54.4664C259.123 59.3656 262.706 66.2392 264.388 75.0872L249.471 75.8549C248.52 70.7363 246.473 66.7145 243.328 63.7896C240.184 60.8647 235.906 59.4022 230.495 59.4022C226.108 59.4022 222.306 60.5722 219.088 62.9121C215.871 65.2521 213.384 68.5426 211.63 72.7838C209.875 77.0249 208.997 82.0339 208.997 87.8106C208.997 93.6605 209.875 98.706 211.63 102.947C213.458 107.115 215.98 110.333 219.198 112.599C222.415 114.866 226.145 116 230.386 116C236.162 116 240.623 114.427 243.767 111.283C246.985 108.066 249.032 103.678 249.91 98.121L264.827 98.8888C263.803 104.958 261.829 110.223 258.904 114.683C255.979 119.071 252.103 122.471 247.277 124.884C242.524 127.224 236.894 128.394 230.386 128.394Z" fill="white"/>
</svg>
