<svg width="319" height="316" viewBox="0 0 319 316" fill="none" xmlns="http://www.w3.org/2000/svg">
<path d="M152.036 151.993C145.663 151.993 140.497 157.159 140.497 163.532V163.619C140.497 169.991 145.663 175.157 152.036 175.157H152.122C158.495 175.157 163.661 169.991 163.661 163.619V163.532C163.661 157.159 158.495 151.993 152.122 151.993H152.036Z" fill="white"/>
<path d="M152.024 221.229C145.651 221.229 140.485 226.396 140.485 232.768V232.855C140.485 239.227 145.651 244.394 152.024 244.394H152.111C158.484 244.394 163.65 239.227 163.65 232.855V232.768C163.65 226.396 158.484 221.229 152.111 221.229H152.024Z" fill="white"/>
<path d="M105.858 232.78C105.858 226.407 111.024 221.241 117.397 221.241H117.484C123.857 221.241 129.023 226.407 129.023 232.78V232.866C129.023 239.239 123.857 244.405 117.484 244.405H117.397C111.024 244.405 105.858 239.239 105.858 232.866V232.78Z" fill="white"/>
<path d="M82.7814 221.229C76.4086 221.229 71.2425 226.396 71.2425 232.768V232.855C71.2425 239.227 76.4086 244.394 82.7814 244.394H82.868C89.2407 244.394 94.4069 239.227 94.4069 232.855V232.768C94.4069 226.396 89.2407 221.229 82.868 221.229H82.7814Z" fill="white"/>
<path d="M175.09 198.204C175.09 191.831 180.256 186.665 186.629 186.665H186.715C193.088 186.665 198.254 191.831 198.254 198.204V198.29C198.254 204.663 193.088 209.829 186.715 209.829H186.629C180.256 209.829 175.09 204.663 175.09 198.29V198.204Z" fill="white"/>
<path d="M186.64 221.241C180.267 221.241 175.101 226.407 175.101 232.78V232.866C175.101 239.239 180.267 244.405 186.64 244.405H186.727C193.099 244.405 198.266 239.239 198.266 232.866V232.78C198.266 226.407 193.099 221.241 186.727 221.241H186.64Z" fill="white"/>
<path d="M209.717 198.181C209.717 191.809 214.883 186.642 221.256 186.642H221.342C227.715 186.642 232.881 191.809 232.881 198.181V198.268C232.881 204.64 227.715 209.806 221.342 209.806H221.256C214.883 209.806 209.717 204.64 209.717 198.268V198.181Z" fill="white"/>
<path d="M175.077 163.532C175.077 157.16 180.244 151.994 186.616 151.994H221.232C227.604 151.994 232.77 157.16 232.77 163.532C232.77 169.905 227.604 175.071 221.232 175.071H186.616C180.244 175.071 175.077 169.905 175.077 163.532Z" fill="white"/>
<path d="M71.2316 198.15C71.2316 191.778 76.3977 186.611 82.7705 186.611H152.001C158.374 186.611 163.54 191.778 163.54 198.15C163.54 204.523 158.374 209.689 152.001 209.689H82.7705C76.3977 209.689 71.2316 204.523 71.2316 198.15Z" fill="white"/>
<path fill-rule="evenodd" clip-rule="evenodd" d="M244.336 13.5387C244.336 7.16607 239.17 2 232.797 2C226.425 2 221.258 7.16607 221.258 13.5387V36.5983H82.7934V13.5593C82.7934 7.18667 77.6272 2.0206 71.2544 2.0206C64.8817 2.0206 59.7155 7.18667 59.7155 13.5593V36.5983H48.1557C22.6646 36.5983 2 57.2626 2 82.7533V255.845C2 281.336 22.6646 302 48.1557 302H255.844C281.335 302 302 281.336 302 255.845V82.7533C302 57.2626 281.335 36.5983 255.844 36.5983H244.336V13.5387ZM25.0779 255.845V140.457C25.0779 127.712 35.4102 117.38 48.1557 117.38H255.844C268.59 117.38 278.922 127.712 278.922 140.457V255.845C278.922 268.59 268.59 278.923 255.844 278.923H48.1557C35.4102 278.923 25.0779 268.59 25.0779 255.845Z" fill="white"/>
<path d="M152.036 151.993C145.663 151.993 140.497 157.159 140.497 163.532V163.619C140.497 169.991 145.663 175.157 152.036 175.157H152.122C158.495 175.157 163.661 169.991 163.661 163.619V163.532C163.661 157.159 158.495 151.993 152.122 151.993H152.036Z" stroke="black" stroke-width="3" stroke-linecap="round" stroke-linejoin="round"/>
<path d="M152.024 221.229C145.651 221.229 140.485 226.396 140.485 232.768V232.855C140.485 239.227 145.651 244.394 152.024 244.394H152.111C158.484 244.394 163.65 239.227 163.65 232.855V232.768C163.65 226.396 158.484 221.229 152.111 221.229H152.024Z" stroke="black" stroke-width="3" stroke-linecap="round" stroke-linejoin="round"/>
<path d="M105.858 232.78C105.858 226.407 111.024 221.241 117.397 221.241H117.484C123.857 221.241 129.023 226.407 129.023 232.78V232.866C129.023 239.239 123.857 244.405 117.484 244.405H117.397C111.024 244.405 105.858 239.239 105.858 232.866V232.78Z" stroke="black" stroke-width="3" stroke-linecap="round" stroke-linejoin="round"/>
<path d="M82.7814 221.229C76.4086 221.229 71.2425 226.396 71.2425 232.768V232.855C71.2425 239.227 76.4086 244.394 82.7814 244.394H82.868C89.2407 244.394 94.4069 239.227 94.4069 232.855V232.768C94.4069 226.396 89.2407 221.229 82.868 221.229H82.7814Z" stroke="black" stroke-width="3" stroke-linecap="round" stroke-linejoin="round"/>
<path d="M175.09 198.204C175.09 191.831 180.256 186.665 186.629 186.665H186.715C193.088 186.665 198.254 191.831 198.254 198.204V198.29C198.254 204.663 193.088 209.829 186.715 209.829H186.629C180.256 209.829 175.09 204.663 175.09 198.29V198.204Z" stroke="black" stroke-width="3" stroke-linecap="round" stroke-linejoin="round"/>
<path d="M186.64 221.241C180.267 221.241 175.101 226.407 175.101 232.78V232.866C175.101 239.239 180.267 244.405 186.64 244.405H186.727C193.099 244.405 198.266 239.239 198.266 232.866V232.78C198.266 226.407 193.099 221.241 186.727 221.241H186.64Z" stroke="black" stroke-width="3" stroke-linecap="round" stroke-linejoin="round"/>
<path d="M209.717 198.181C209.717 191.809 214.883 186.642 221.256 186.642H221.342C227.715 186.642 232.881 191.809 232.881 198.181V198.268C232.881 204.64 227.715 209.806 221.342 209.806H221.256C214.883 209.806 209.717 204.64 209.717 198.268V198.181Z" stroke="black" stroke-width="3" stroke-linecap="round" stroke-linejoin="round"/>
<path d="M175.077 163.532C175.077 157.16 180.244 151.994 186.616 151.994H221.232C227.604 151.994 232.77 157.16 232.77 163.532C232.77 169.905 227.604 175.071 221.232 175.071H186.616C180.244 175.071 175.077 169.905 175.077 163.532Z" stroke="black" stroke-width="3" stroke-linecap="round" stroke-linejoin="round"/>
<path d="M71.2316 198.15C71.2316 191.778 76.3977 186.611 82.7705 186.611H152.001C158.374 186.611 163.54 191.778 163.54 198.15C163.54 204.523 158.374 209.689 152.001 209.689H82.7705C76.3977 209.689 71.2316 204.523 71.2316 198.15Z" stroke="black" stroke-width="3" stroke-linecap="round" stroke-linejoin="round"/>
<path fill-rule="evenodd" clip-rule="evenodd" d="M244.336 13.5387C244.336 7.16607 239.17 2 232.797 2C226.425 2 221.258 7.16607 221.258 13.5387V36.5983H82.7934V13.5593C82.7934 7.18667 77.6272 2.0206 71.2544 2.0206C64.8817 2.0206 59.7155 7.18667 59.7155 13.5593V36.5983H48.1557C22.6646 36.5983 2 57.2626 2 82.7533V255.845C2 281.336 22.6646 302 48.1557 302H255.844C281.335 302 302 281.336 302 255.845V82.7533C302 57.2626 281.335 36.5983 255.844 36.5983H244.336V13.5387ZM25.0779 255.845V140.457C25.0779 127.712 35.4102 117.38 48.1557 117.38H255.844C268.59 117.38 278.922 127.712 278.922 140.457V255.845C278.922 268.59 268.59 278.923 255.844 278.923H48.1557C35.4102 278.923 25.0779 268.59 25.0779 255.845Z" stroke="black" stroke-width="3" stroke-linecap="round" stroke-linejoin="round"/>
<path fill-rule="evenodd" clip-rule="evenodd" d="M85.2308 13C91.6033 13 96.7692 18.1659 96.7692 24.5385V47.6154H235.231V24.5385C235.231 18.1659 240.397 13 246.769 13C253.142 13 258.308 18.1659 258.308 24.5385V47.6154H269.846C295.336 47.6154 316 68.2792 316 93.7692V266.846C316 292.336 295.336 313 269.846 313H62.1538C36.6638 313 16 292.336 16 266.846V93.7692C16 68.2792 36.6638 47.6154 62.1538 47.6154H73.6923V24.5385C73.6923 18.1659 78.8583 13 85.2308 13ZM292.923 151.462C292.923 138.717 282.591 128.385 269.846 128.385H62.1538C49.4088 128.385 39.0769 138.717 39.0769 151.462V266.846C39.0769 279.591 49.4088 289.923 62.1538 289.923H269.846C282.591 289.923 292.923 279.591 292.923 266.846V151.462Z" fill="black" stroke="white" stroke-width="5"/>
</svg>
